<svg width="129" height="129" viewBox="0 0 129 129" fill="none" xmlns="http://www.w3.org/2000/svg">
<path d="M63 71.2L63.4 71.6L62.4 80.5C61.5333 79.5 60.6333 78.5667 59.7 77.7C58.7667 76.8333 57.8 76 56.8 75.2L61.3 69.1C61.5 69.3 61.6667 69.5 61.8 69.7L62.4 70.3C62.4667 70.4333 62.5 70.5333 62.5 70.6L62.7 70.8C62.8333 70.9333 62.9333 71.0667 63 71.2Z" fill="black"/>
<path d="M92.6 49.7C92.5333 50.1 92.3667 50.5 92.1 50.9C90.8333 53.0333 88.8667 54.6333 86.2 55.7C83.6 56.7667 80.8667 57.5 78 57.9C76.2 58.1667 74.4 58.3333 72.6 58.4C70.8 58.4667 69.2 58.4667 67.8 58.4L69.8 41.3L67 41L66.4 45.4L66 49.6L65.4 54C65.2667 55.4 65.1333 56.8333 65 58.3C63.9333 58.1667 62.8333 58.0667 61.7 58L58.5 57.6L53.4 64L54.6 64.6C55 64.8 55.3667 65 55.7 65.2L57.5 66.2C58.1 66.5333 58.6667 66.8667 59.2 67.2L54.6 73.5C52.6 71.9667 50.5 70.6 48.3 69.4C46.1667 68.1333 44 66.9 41.8 65.7L41 65.3C40.8 65.1667 40.5667 65.0333 40.3 64.9C39.8333 64.6333 39.3333 64.3667 38.8 64.1L37.4 63.3L34.2 61.7C32.8 61.0333 31.4333 60.3333 30.1 59.6C28.8333 58.8667 27.6333 58 26.5 57C25.6333 56.2 24.9333 55.2333 24.4 54.1C23.8667 52.9667 23.6 51.8 23.6 50.6C23.6 49.6667 23.7667 48.7667 24.1 47.9C24.5 47.0333 25.1 46.3 25.9 45.7C28.4333 43.8333 32.6667 42.4 38.6 41.4C44.6 40.3333 50.9333 39.7333 57.6 39.6H59.8C68.2 39.5333 75.7667 40.2333 82.5 41.7C89.3 43.1667 92.7333 45.4333 92.8 48.5C92.8 48.9 92.7333 49.3 92.6 49.7Z" fill="black"/>
<path fill-rule="evenodd" clip-rule="evenodd" d="M64.5 129C100.122 129 129 100.122 129 64.5C129 28.8776 100.122 0 64.5 0C28.8776 0 0 28.8776 0 64.5C0 100.122 28.8776 129 64.5 129ZM90.6 108.2L99.5 104.1L72.3 67.7C72.4333 67.6333 72.5667 67.6 72.7 67.6C72.8333 67.5333 72.9667 67.5 73.1 67.5C79.0333 65.7667 84.4333 63.1667 89.3 59.7C94.2333 56.2333 96.6667 50.9 96.6 43.7C96.6 38.9 94.6 35.3667 90.6 33.1C86.6 30.8333 82.2333 29.3333 77.5 28.6C74.9667 28.2 72.4667 27.9333 70 27.8C67.6 27.6667 65.5 27.6333 63.7 27.7C61.4333 27.7 58.9667 27.8 56.3 28C53.7 28.2 51.0333 28.5333 48.3 29C41.0333 30.2 34.4333 32.7 28.5 36.5C22.5667 40.3 19.9 46.4333 20.5 54.9C20.9 60.1667 23 64.2667 26.8 67.2C30.6667 70.1333 34.8667 72.7333 39.4 75L41 75.8C41.5333 76.0667 42.1 76.3333 42.7 76.6C43.9 77.2667 45.0667 77.9 46.2 78.5C47.4 79.1 48.5333 79.7333 49.6 80.4L41.6 91.4C41.5333 91.5333 41.4667 91.7 41.4 91.9C41.3333 92.0333 41.3 92.1667 41.3 92.3C41.2333 92.7 41.3333 93.0333 41.6 93.3C41.9333 93.5667 42.3 93.7 42.7 93.7C42.9 93.7 43.1 93.6667 43.3 93.6C43.5 93.4667 43.7 93.2667 43.9 93C45.2333 91.1333 46.5667 89.3 47.9 87.5C49.3 85.6333 50.6667 83.7667 52 81.9C54.2 83.3667 56.2333 84.9667 58.1 86.7C60.0333 88.4333 61.9333 90.2667 63.8 92.2L65.8 75C66.6667 76.2 67.5 77.4 68.3 78.6C69.1667 79.8 70 81 70.8 82.2L71.6 83.4C71.9333 83.8 72.2333 84.2 72.5 84.6C75.3 88.6667 78.1667 92.6667 81.1 96.6C84.0333 100.6 87.2 104.467 90.6 108.2Z" fill="black"/>
</svg>
