<svg width="200" height="70" viewBox="0 0 530 129" fill="none" xmlns="http://www.w3.org/2000/svg">
<path d="M63 71.2L63.4 71.6L62.4 80.5C61.5333 79.5 60.6333 78.5667 59.7 77.7C58.7667 76.8333 57.8 76 56.8 75.2L61.3 69.1C61.5 69.3 61.6667 69.5 61.8 69.7L62.4 70.3C62.4667 70.4333 62.5 70.5333 62.5 70.6L62.7 70.8C62.8333 70.9333 62.9333 71.0667 63 71.2Z" fill="#333"/>
<path d="M92.6 49.7C92.5333 50.1 92.3667 50.5 92.1 50.9C90.8333 53.0333 88.8667 54.6333 86.2 55.7C83.6 56.7667 80.8667 57.5 78 57.9C76.2 58.1667 74.4 58.3333 72.6 58.4C70.8 58.4667 69.2 58.4667 67.8 58.4L69.8 41.3L67 41L66.4 45.4L66 49.6L65.4 54C65.2667 55.4 65.1333 56.8333 65 58.3C63.9333 58.1667 62.8333 58.0667 61.7 58L58.5 57.6L53.4 64L54.6 64.6C55 64.8 55.3667 65 55.7 65.2L57.5 66.2C58.1 66.5333 58.6667 66.8667 59.2 67.2L54.6 73.5C52.6 71.9667 50.5 70.6 48.3 69.4C46.1667 68.1333 44 66.9 41.8 65.7L41 65.3C40.8 65.1667 40.5667 65.0333 40.3 64.9C39.8333 64.6333 39.3333 64.3667 38.8 64.1L37.4 63.3L34.2 61.7C32.8 61.0333 31.4333 60.3333 30.1 59.6C28.8333 58.8667 27.6333 58 26.5 57C25.6333 56.2 24.9333 55.2333 24.4 54.1C23.8667 52.9667 23.6 51.8 23.6 50.6C23.6 49.6667 23.7667 48.7667 24.1 47.9C24.5 47.0333 25.1 46.3 25.9 45.7C28.4333 43.8333 32.6667 42.4 38.6 41.4C44.6 40.3333 50.9333 39.7333 57.6 39.6H59.8C68.2 39.5333 75.7667 40.2333 82.5 41.7C89.3 43.1667 92.7333 45.4333 92.8 48.5C92.8 48.9 92.7333 49.3 92.6 49.7Z" fill="#333"/>
<path fill-rule="evenodd" clip-rule="evenodd" d="M64.5 129C100.122 129 129 100.122 129 64.5C129 28.8776 100.122 0 64.5 0C28.8776 0 0 28.8776 0 64.5C0 100.122 28.8776 129 64.5 129ZM90.6 108.2L99.5 104.1L72.3 67.7C72.4333 67.6333 72.5667 67.6 72.7 67.6C72.8333 67.5333 72.9667 67.5 73.1 67.5C79.0333 65.7667 84.4333 63.1667 89.3 59.7C94.2333 56.2333 96.6667 50.9 96.6 43.7C96.6 38.9 94.6 35.3667 90.6 33.1C86.6 30.8333 82.2333 29.3333 77.5 28.6C74.9667 28.2 72.4667 27.9333 70 27.8C67.6 27.6667 65.5 27.6333 63.7 27.7C61.4333 27.7 58.9667 27.8 56.3 28C53.7 28.2 51.0333 28.5333 48.3 29C41.0333 30.2 34.4333 32.7 28.5 36.5C22.5667 40.3 19.9 46.4333 20.5 54.9C20.9 60.1667 23 64.2667 26.8 67.2C30.6667 70.1333 34.8667 72.7333 39.4 75L41 75.8C41.5333 76.0667 42.1 76.3333 42.7 76.6C43.9 77.2667 45.0667 77.9 46.2 78.5C47.4 79.1 48.5333 79.7333 49.6 80.4L41.6 91.4C41.5333 91.5333 41.4667 91.7 41.4 91.9C41.3333 92.0333 41.3 92.1667 41.3 92.3C41.2333 92.7 41.3333 93.0333 41.6 93.3C41.9333 93.5667 42.3 93.7 42.7 93.7C42.9 93.7 43.1 93.6667 43.3 93.6C43.5 93.4667 43.7 93.2667 43.9 93C45.2333 91.1333 46.5667 89.3 47.9 87.5C49.3 85.6333 50.6667 83.7667 52 81.9C54.2 83.3667 56.2333 84.9667 58.1 86.7C60.0333 88.4333 61.9333 90.2667 63.8 92.2L65.8 75C66.6667 76.2 67.5 77.4 68.3 78.6C69.1667 79.8 70 81 70.8 82.2L71.6 83.4C71.9333 83.8 72.2333 84.2 72.5 84.6C75.3 88.6667 78.1667 92.6667 81.1 96.6C84.0333 100.6 87.2 104.467 90.6 108.2Z" fill="#333"/>
<path d="M133.7 69C132.767 70.2 131.833 71.4333 130.9 72.7C130.033 73.9 129.133 75.1 128.2 76.3C127.267 77.5 126.333 78.7333 125.4 80C124.533 81.2 123.633 82.4 122.7 83.6C121.833 84.8 120.8 85.8333 119.6 86.7C118.4 87.5 117.167 88.1 115.9 88.5C115.433 88.6333 114.967 88.7333 114.5 88.8C114.1 88.8667 113.667 88.9 113.2 88.9C111.6 88.9 110.2 88.3333 109 87.2C107.8 86.0667 107.133 84.2333 107 81.7C107 81.1 106.967 80.5333 106.9 80C106.9 79.4 106.867 78.8 106.8 78.2C106.733 77.6 106.667 77.0333 106.6 76.5C106.6 75.9 106.6 75.3 106.6 74.7C106.333 75.3667 105.967 76.2333 105.5 77.3C105.033 78.3 104.467 79.3667 103.8 80.5C102.867 82.2333 101.733 83.8333 100.4 85.3C99.1333 86.7 97.7333 87.4 96.2 87.4C95.9333 87.4 95.6667 87.3667 95.4 87.3C95.1333 87.1667 94.8333 87.0667 94.5 87C93.4333 86.6 92.6333 85.9333 92.1 85C91.5667 84 91.2 82.9667 91 81.9C90.9333 81.5 90.8667 81.1 90.8 80.7C90.8 80.3 90.8 79.9 90.8 79.5C90.7333 76.4333 90.6333 73.4 90.5 70.4C90.4333 67.3333 90.3333 64.2667 90.2 61.2L101.7 57.3L102.4 77C103.733 74.3333 104.833 71.6333 105.7 68.9C106.633 66.1 107.5 63.3 108.3 60.5L119 58C119.2 62.0667 119.4 66.1333 119.6 70.2C119.8 74.2 120 78.2 120.2 82.2C121.667 80.4 123.1 78.5667 124.5 76.7C125.9 74.8333 127.267 72.9667 128.6 71.1C129.067 70.4333 129.533 69.8 130 69.2C130.467 68.5333 130.933 67.9 131.4 67.3C131.6 67.0333 131.8 66.8667 132 66.8C132.2 66.6667 132.4 66.6333 132.6 66.7C133 66.7 133.333 66.8333 133.6 67.1C133.933 67.3667 134.067 67.7 134 68.1C134 68.2333 133.967 68.4 133.9 68.6C133.9 68.7333 133.833 68.8667 133.7 69Z" fill="#E5E5E5"/>
<path d="M165.999 69.8C165.599 70.2667 165.199 70.7333 164.799 71.2C164.399 71.6667 163.999 72.1 163.599 72.5C163.266 72.9667 162.899 73.4333 162.499 73.9C162.166 74.3 161.799 74.7 161.399 75.1C160.199 76.5667 158.966 78.0333 157.699 79.5C156.433 80.9 155.133 82.2333 153.799 83.5C153.599 83.7 153.366 83.9 153.099 84.1C152.899 84.3 152.699 84.5 152.499 84.7C151.366 85.6333 150.133 86.5 148.799 87.3C147.466 88.1 146.066 88.5 144.599 88.5C144.333 88.5 144.066 88.5 143.799 88.5C143.599 88.4333 143.366 88.3667 143.099 88.3C142.433 88.1667 141.799 87.8667 141.199 87.4C140.599 86.9333 140.066 86.3 139.599 85.5C139.199 84.7667 138.866 83.8667 138.599 82.8C138.399 81.6667 138.333 80.3667 138.399 78.9C138.399 77.5 138.399 76.1333 138.399 74.8C138.466 73.4 138.533 72.0333 138.599 70.7C138.666 69.3667 138.699 68.0333 138.699 66.7C138.766 65.3 138.799 63.9333 138.799 62.6C137.933 62.6 136.999 62.6 135.999 62.6C135.066 62.6 134.133 62.6 133.199 62.6C132.733 62.6 132.366 62.4667 132.099 62.2C131.833 61.8667 131.699 61.5 131.699 61.1C131.699 61.0333 131.699 61 131.699 61C131.699 60.9333 131.699 60.9 131.699 60.9C131.766 60.6333 131.899 60.4 132.099 60.2C132.366 59.9333 132.733 59.8 133.199 59.8C134.133 59.8 135.066 59.8 135.999 59.8C136.999 59.8 137.966 59.8 138.899 59.8C138.966 56.4667 139.033 53.1333 139.099 49.8C139.233 46.4667 139.333 43.1667 139.399 39.9L149.399 34.6L149.099 59.8C150.433 59.8 151.699 59.8 152.899 59.8C154.166 59.8 155.433 59.8 156.699 59.8C157.233 59.8 157.633 59.9667 157.899 60.3C158.166 60.5667 158.299 60.9 158.299 61.3C158.299 61.3667 158.299 61.4333 158.299 61.5C158.299 61.5 158.266 61.5 158.199 61.5C158.133 61.7667 157.966 62.0333 157.699 62.3C157.499 62.5 157.166 62.6 156.699 62.6C156.099 62.6 155.466 62.6 154.799 62.6C154.199 62.6 153.566 62.6 152.899 62.6C152.233 62.6 151.566 62.6 150.899 62.6C150.299 62.6 149.699 62.6 149.099 62.6C149.033 65.7333 148.966 68.9 148.899 72.1C148.899 75.2333 148.866 78.3667 148.799 81.5C148.799 81.9 148.866 82.2 148.999 82.4C149.199 82.5333 149.433 82.6 149.699 82.6C149.833 82.6 149.966 82.5667 150.099 82.5C150.233 82.4333 150.399 82.3667 150.599 82.3C150.733 82.2333 150.866 82.1667 150.999 82.1C151.199 81.9667 151.366 81.8333 151.499 81.7C151.566 81.6333 151.633 81.5667 151.699 81.5C151.766 81.4333 151.833 81.3667 151.899 81.3C152.899 80.1667 153.899 79.0667 154.899 78C155.899 76.8667 156.899 75.7333 157.899 74.6C158.899 73.4667 159.866 72.3667 160.799 71.3C161.799 70.1667 162.799 69.0333 163.799 67.9C163.999 67.7 164.199 67.5667 164.399 67.5C164.599 67.3667 164.799 67.3333 164.999 67.4C165.399 67.4 165.733 67.5333 165.999 67.8C166.266 68.0667 166.399 68.4 166.399 68.8C166.399 68.8667 166.399 68.9667 166.399 69.1C166.399 69.1667 166.366 69.2333 166.299 69.3C166.299 69.3667 166.266 69.4667 166.199 69.6C166.133 69.6667 166.066 69.7333 165.999 69.8ZM202.775 68.9C201.975 70.1 201.175 71.3333 200.375 72.6C199.642 73.8 198.908 75 198.175 76.2C197.442 77.4667 196.675 78.7333 195.875 80C195.142 81.2 194.375 82.4 193.575 83.6C192.775 84.8667 191.842 85.9333 190.775 86.8C189.708 87.6667 188.608 88.2667 187.475 88.6C187.142 88.7333 186.775 88.8333 186.375 88.9C185.975 88.9667 185.608 89 185.275 89C183.808 89 182.508 88.4333 181.375 87.3C180.242 86.1 179.542 84.2667 179.275 81.8C179.142 80.0667 178.975 78.3333 178.775 76.6C178.642 74.8 178.475 73.0333 178.275 71.3L173.475 81.1L173.575 88.4H162.275C162.275 84.8667 162.275 81.3333 162.275 77.8C162.275 74.2667 162.275 70.7333 162.275 67.2C162.275 63.6667 162.242 60.1333 162.175 56.6C162.175 53.0667 162.175 49.5333 162.175 46C162.175 42.8667 162.475 40.1 163.075 37.7C163.742 35.2333 164.575 33.1333 165.575 31.4C165.642 31.2667 165.708 31.1333 165.775 31C165.842 30.8667 165.942 30.7333 166.075 30.6C166.942 29.2 168.108 27.9 169.575 26.7C171.042 25.4333 172.542 24.6333 174.075 24.3C174.275 24.3 174.475 24.3 174.675 24.3C174.942 24.2333 175.208 24.2 175.475 24.2C176.475 24.2 177.408 24.4667 178.275 25C179.208 25.5333 180.008 26.4667 180.675 27.8C181.142 28.6667 181.475 29.5667 181.675 30.5C181.875 31.4333 182.008 32.4 182.075 33.4C182.142 33.6 182.175 33.8333 182.175 34.1C182.175 34.3 182.175 34.5333 182.175 34.8C182.175 35.6 182.142 36.3667 182.075 37.1C182.008 37.8333 181.908 38.5667 181.775 39.3C181.308 42.6333 180.342 45.9 178.875 49.1C177.408 52.3 175.575 55.1667 173.375 57.7L173.475 74.8C173.942 73.8 174.408 72.8333 174.875 71.9C175.408 70.9 175.908 69.9 176.375 68.9C176.842 67.9 177.308 66.9333 177.775 66C178.308 65 178.808 64 179.275 63C179.808 61.8667 180.542 60.9 181.475 60.1C182.408 59.3 183.508 58.9 184.775 58.9C184.908 58.9 185.042 58.9 185.175 58.9C185.375 58.9 185.542 58.9333 185.675 59C186.608 59.1333 187.442 59.5333 188.175 60.2C188.975 60.8667 189.408 61.6667 189.475 62.6C189.608 64.2 189.742 65.8333 189.875 67.5C190.075 69.1 190.242 70.7 190.375 72.3C190.508 73.9 190.642 75.5333 190.775 77.2C190.975 78.8 191.142 80.4 191.275 82C192.008 80.8 192.742 79.6 193.475 78.4C194.275 77.1333 195.075 75.9 195.875 74.7C196.608 73.5 197.342 72.3 198.075 71.1C198.875 69.8333 199.642 68.6 200.375 67.4C200.575 67.0667 200.775 66.8333 200.975 66.7C201.242 66.5667 201.508 66.5333 201.775 66.6C202.108 66.6 202.408 66.7667 202.675 67.1C202.942 67.3667 203.075 67.7 203.075 68.1C203.075 68.1667 203.042 68.3 202.975 68.5C202.975 68.6333 202.908 68.7667 202.775 68.9ZM179.275 35C179.275 34.8 179.242 34.3667 179.175 33.7C179.108 32.9667 179.008 32.2 178.875 31.4C178.675 30.5333 178.408 29.7333 178.075 29C177.808 28.2 177.408 27.8 176.875 27.8C175.942 27.8 175.208 28.4 174.675 29.6C174.208 30.7333 173.842 32 173.575 33.4C173.442 34.4667 173.342 35.5 173.275 36.5C173.208 37.5 173.175 38.2 173.175 38.6C173.175 39.8 173.175 41.0333 173.175 42.3C173.242 43.5 173.275 44.7 173.275 45.9C173.275 47.1 173.275 48.3333 173.275 49.6C173.275 50.8 173.275 52 173.275 53.2C174.875 50.9333 176.175 48.4333 177.175 45.7C178.242 42.9667 178.908 40.2 179.175 37.4C179.175 37 179.175 36.6 179.175 36.2C179.242 35.8 179.275 35.4 179.275 35ZM276.197 75.5L275.197 82.2C271.997 83.9333 268.43 85.3333 264.497 86.4C260.564 87.4 256.53 87.9333 252.397 88C252.197 88 251.997 88 251.797 88C251.597 88 251.397 88 251.197 88C245.13 88 239.397 86.8 233.997 84.4C228.597 82 224.564 78.0667 221.897 72.6C221.23 71.2667 220.73 69.8667 220.397 68.4C220.064 66.9333 219.897 65.4667 219.897 64C219.897 63.4667 219.93 62.9333 219.997 62.4C220.064 61.8667 220.13 61.3333 220.197 60.8C221.064 55.1333 222.864 49.9667 225.597 45.3C228.33 40.6333 232.03 36.6333 236.697 33.3C239.03 31.6333 241.564 30.2333 244.297 29.1C247.03 27.9667 249.83 27.4 252.697 27.4C252.83 27.4 252.964 27.4 253.097 27.4C253.23 27.4 253.397 27.4 253.597 27.4C253.73 27.4 253.864 27.4333 253.997 27.5C254.13 27.5 254.264 27.5 254.397 27.5C259.664 28.0333 263.597 30.3667 266.197 34.5C268.797 38.6333 270.097 43.1333 270.097 48C270.097 48.0667 270.097 48.1333 270.097 48.2C270.097 48.2 270.097 48.2333 270.097 48.3C270.097 49.1667 270.064 50.0667 269.997 51C269.93 51.8667 269.797 52.7667 269.597 53.7C269.197 55.5 268.664 57.3 267.997 59.1C267.397 60.8333 266.73 62.5667 265.997 64.3C265.864 64.1667 265.73 64.0667 265.597 64C265.464 63.8667 265.364 63.7333 265.297 63.6C265.164 63.5333 265.03 63.4333 264.897 63.3C264.764 63.1667 264.63 63.0667 264.497 63C263.03 61.6667 261.997 60.2667 261.397 58.8C260.797 57.3333 260.497 55.8667 260.497 54.4C260.497 53 260.664 51.5667 260.997 50.1C261.397 48.6333 261.797 47.2 262.197 45.8C262.397 45.1333 262.597 44.5 262.797 43.9C262.997 43.2333 263.164 42.5667 263.297 41.9C263.23 41.8333 263.164 41.8 263.097 41.8C263.097 41.7333 263.064 41.6667 262.997 41.6C262.13 40.8667 261.13 40.1667 259.997 39.5C258.864 38.8333 257.664 38.2667 256.397 37.8C255.664 37.5333 254.93 37.3333 254.197 37.2C253.53 37 252.864 36.9 252.197 36.9C249.464 36.7667 246.864 37.2667 244.397 38.4C241.93 39.4667 239.597 40.7667 237.397 42.3C236.864 42.6333 236.33 43 235.797 43.4C235.33 43.8 234.83 44.2 234.297 44.6C231.23 47.0667 228.464 50.0667 225.997 53.6C223.53 57.0667 222.464 60.8 222.797 64.8C222.93 66 223.097 67.1667 223.297 68.3C223.564 69.3667 223.93 70.3667 224.397 71.3C225.597 73.7 227.497 75.5 230.097 76.7C232.764 77.9 235.73 78.7667 238.997 79.3C239.73 79.3667 240.43 79.4667 241.097 79.6C241.83 79.6667 242.564 79.7 243.297 79.7C243.964 79.7667 244.664 79.8333 245.397 79.9C246.13 79.9 246.83 79.9 247.497 79.9C248.164 79.9 248.83 79.9 249.497 79.9C250.23 79.8333 250.964 79.7667 251.697 79.7C255.83 79.5 259.964 79 264.097 78.2C268.23 77.4 272.264 76.5 276.197 75.5ZM317.716 68.9C316.916 70.1 316.116 71.3333 315.316 72.6C314.583 73.8 313.85 75 313.116 76.2C312.383 77.4667 311.616 78.7333 310.816 80C310.083 81.2 309.316 82.4 308.516 83.6C307.716 84.8667 306.783 85.9333 305.716 86.8C304.65 87.6667 303.55 88.2667 302.416 88.6C302.083 88.7333 301.716 88.8333 301.316 88.9C300.916 88.9667 300.55 89 300.216 89C298.75 89 297.45 88.4333 296.316 87.3C295.183 86.1 294.483 84.2667 294.216 81.8C294.083 80.0667 293.916 78.3333 293.716 76.6C293.583 74.8 293.416 73.0333 293.216 71.3L288.416 81.1L288.516 88.4H277.216C277.216 84.8667 277.216 81.3333 277.216 77.8C277.216 74.2667 277.216 70.7333 277.216 67.2C277.216 63.6667 277.183 60.1333 277.116 56.6C277.116 53.0667 277.116 49.5333 277.116 46C277.116 42.8667 277.416 40.1 278.016 37.7C278.683 35.2333 279.516 33.1333 280.516 31.4C280.583 31.2667 280.65 31.1333 280.716 31C280.783 30.8667 280.883 30.7333 281.016 30.6C281.883 29.2 283.05 27.9 284.516 26.7C285.983 25.4333 287.483 24.6333 289.016 24.3C289.216 24.3 289.416 24.3 289.616 24.3C289.883 24.2333 290.15 24.2 290.416 24.2C291.416 24.2 292.35 24.4667 293.216 25C294.15 25.5333 294.95 26.4667 295.616 27.8C296.083 28.6667 296.416 29.5667 296.616 30.5C296.816 31.4333 296.95 32.4 297.016 33.4C297.083 33.6 297.116 33.8333 297.116 34.1C297.116 34.3 297.116 34.5333 297.116 34.8C297.116 35.6 297.083 36.3667 297.016 37.1C296.95 37.8333 296.85 38.5667 296.716 39.3C296.25 42.6333 295.283 45.9 293.816 49.1C292.35 52.3 290.516 55.1667 288.316 57.7L288.416 74.8C288.883 73.8 289.35 72.8333 289.816 71.9C290.35 70.9 290.85 69.9 291.316 68.9C291.783 67.9 292.25 66.9333 292.716 66C293.25 65 293.75 64 294.216 63C294.75 61.8667 295.483 60.9 296.416 60.1C297.35 59.3 298.45 58.9 299.716 58.9C299.85 58.9 299.983 58.9 300.116 58.9C300.316 58.9 300.483 58.9333 300.616 59C301.55 59.1333 302.383 59.5333 303.116 60.2C303.916 60.8667 304.35 61.6667 304.416 62.6C304.55 64.2 304.683 65.8333 304.816 67.5C305.016 69.1 305.183 70.7 305.316 72.3C305.45 73.9 305.583 75.5333 305.716 77.2C305.916 78.8 306.083 80.4 306.216 82C306.95 80.8 307.683 79.6 308.416 78.4C309.216 77.1333 310.016 75.9 310.816 74.7C311.55 73.5 312.283 72.3 313.016 71.1C313.816 69.8333 314.583 68.6 315.316 67.4C315.516 67.0667 315.716 66.8333 315.916 66.7C316.183 66.5667 316.45 66.5333 316.716 66.6C317.05 66.6 317.35 66.7667 317.616 67.1C317.883 67.3667 318.016 67.7 318.016 68.1C318.016 68.1667 317.983 68.3 317.916 68.5C317.916 68.6333 317.85 68.7667 317.716 68.9ZM294.216 35C294.216 34.8 294.183 34.3667 294.116 33.7C294.05 32.9667 293.95 32.2 293.816 31.4C293.616 30.5333 293.35 29.7333 293.016 29C292.75 28.2 292.35 27.8 291.816 27.8C290.883 27.8 290.15 28.4 289.616 29.6C289.15 30.7333 288.783 32 288.516 33.4C288.383 34.4667 288.283 35.5 288.216 36.5C288.15 37.5 288.116 38.2 288.116 38.6C288.116 39.8 288.116 41.0333 288.116 42.3C288.183 43.5 288.216 44.7 288.216 45.9C288.216 47.1 288.216 48.3333 288.216 49.6C288.216 50.8 288.216 52 288.216 53.2C289.816 50.9333 291.116 48.4333 292.116 45.7C293.183 42.9667 293.85 40.2 294.116 37.4C294.116 37 294.116 36.6 294.116 36.2C294.183 35.8 294.216 35.4 294.216 35ZM347.519 67.4C347.452 67.8 347.385 68.2333 347.319 68.7C347.252 69.1 347.185 69.5 347.119 69.9C345.919 74.5 343.319 78.7333 339.319 82.6C335.385 86.4667 330.985 88.4 326.119 88.4C326.052 88.4 325.952 88.4 325.819 88.4C325.685 88.4 325.552 88.3667 325.419 88.3C325.352 88.3 325.252 88.3 325.119 88.3C324.985 88.3 324.852 88.3 324.719 88.3C321.652 88.0333 319.152 86.5333 317.219 83.8C315.285 81 314.352 77.5667 314.419 73.5C314.419 73.3 314.419 73.1 314.419 72.9C314.419 72.6333 314.419 72.4 314.419 72.2C314.419 72 314.419 71.8 314.419 71.6C314.485 71.3333 314.519 71.1 314.519 70.9C314.719 68.6333 315.252 66.5333 316.119 64.6C316.985 62.6 318.019 60.8667 319.219 59.4C319.352 59.2667 319.485 59.1333 319.619 59C319.752 58.8 319.885 58.6333 320.019 58.5C321.152 57.2333 322.452 56.1 323.919 55.1C325.385 54.1 326.952 53.6 328.619 53.6C328.819 53.6 329.019 53.6 329.219 53.6C329.419 53.6 329.619 53.6333 329.819 53.7C331.552 54.1 332.852 55 333.719 56.4C334.585 57.7333 335.119 59.1667 335.319 60.7C335.319 60.9667 335.319 61.2667 335.319 61.6C335.385 61.8667 335.419 62.1333 335.419 62.4C335.419 63 335.385 63.6333 335.319 64.3C335.252 64.9 335.152 65.5333 335.019 66.2C334.552 68.3333 333.685 70.3667 332.419 72.3C331.219 74.2333 329.685 75.7333 327.819 76.8C328.419 77.2 329.019 77.5333 329.619 77.8C330.285 78.0667 330.952 78.2667 331.619 78.4C331.952 78.4667 332.252 78.5333 332.519 78.6C332.852 78.6 333.185 78.6 333.519 78.6C334.852 78.5333 336.152 78.2333 337.419 77.7C338.685 77.1667 339.852 76.3667 340.919 75.3C341.985 74.3 342.852 73.1 343.519 71.7C344.185 70.3 344.585 68.7667 344.719 67.1C344.785 66.6333 344.952 66.3 345.219 66.1C345.552 65.8333 345.885 65.7 346.219 65.7C346.285 65.7 346.352 65.7333 346.419 65.8C346.485 65.8 346.519 65.8 346.519 65.8C346.785 65.8667 347.019 66 347.219 66.2C347.485 66.4 347.585 66.7 347.519 67.1C347.519 67.1667 347.519 67.2333 347.519 67.3C347.519 67.3 347.519 67.3333 347.519 67.4ZM329.219 63.6C329.219 63.4 329.185 63.1333 329.119 62.8C329.119 62.4667 329.085 62.1333 329.019 61.8C328.819 61.2 328.552 60.6667 328.219 60.2C327.885 59.6667 327.419 59.4 326.819 59.4C325.552 59.4 324.619 59.8667 324.019 60.8C323.419 61.6667 323.019 62.6667 322.819 63.8C322.752 64.1333 322.685 64.4667 322.619 64.8C322.552 65.1333 322.519 65.4333 322.519 65.7C322.519 65.7667 322.519 65.8667 322.519 66C322.519 66.0667 322.519 66.1667 322.519 66.3C322.452 66.3667 322.419 66.4667 322.419 66.6C322.419 66.6667 322.419 66.7667 322.419 66.9C322.485 68.1667 322.719 69.4 323.119 70.6C323.519 71.8 324.052 72.9 324.719 73.9C325.852 72.8333 326.785 71.5667 327.519 70.1C328.319 68.6333 328.819 67.1333 329.019 65.6C329.085 65.2667 329.119 64.9333 329.119 64.6C329.185 64.2667 329.219 63.9333 329.219 63.6ZM376.544 68C375.61 69.2 374.677 70.4333 373.744 71.7C372.877 72.9 371.977 74.1 371.044 75.3C370.11 76.5667 369.177 77.8333 368.244 79.1C367.377 80.3 366.477 81.5 365.544 82.7C364.544 84.0333 363.21 85.2667 361.544 86.4C359.877 87.5333 358.11 88.1 356.244 88.1C356.11 88.1 355.944 88.1 355.744 88.1C355.544 88.1 355.344 88.0667 355.144 88C353.41 87.6667 352.11 86.8 351.244 85.4C350.444 84 349.977 82.4667 349.844 80.8C349.71 78.5333 349.544 76.3 349.344 74.1C349.21 71.8333 349.044 69.6 348.844 67.4L342.544 70.8C342.544 69.4667 342.51 68.1333 342.444 66.8C342.444 65.4667 342.444 64.1333 342.444 62.8C342.444 61.5333 342.41 60.2333 342.344 58.9C342.344 57.5667 342.344 56.2333 342.344 54.9C342.344 54.3667 342.477 54 342.744 53.8C343.077 53.5333 343.444 53.4 343.844 53.4C344.177 53.4 344.477 53.5333 344.744 53.8C345.077 54 345.244 54.3667 345.244 54.9C345.244 55.8333 345.244 56.7667 345.244 57.7C345.244 58.6333 345.244 59.5667 345.244 60.5L361.244 58.6C361.51 61.8667 361.744 65.1 361.944 68.3C362.21 71.5 362.477 74.7 362.744 77.9C362.81 78.3667 362.944 78.7333 363.144 79C363.41 79.2 363.677 79.2667 363.944 79.2C364.21 79.2 364.444 79.1 364.644 78.9C364.91 78.7 365.144 78.4667 365.344 78.2C365.41 78.1333 365.477 78.0667 365.544 78C365.61 77.9333 365.644 77.9 365.644 77.9C365.71 77.8333 365.744 77.8 365.744 77.8C366.477 76.8667 367.177 75.9333 367.844 75C368.577 74 369.31 73 370.044 72C370.71 71.0667 371.41 70.1333 372.144 69.2C372.877 68.2 373.577 67.2333 374.244 66.3C374.444 66.0333 374.644 65.8667 374.844 65.8C375.044 65.6667 375.244 65.6333 375.444 65.7C375.844 65.7 376.177 65.8333 376.444 66.1C376.777 66.3667 376.91 66.7 376.844 67.1C376.844 67.2333 376.81 67.4 376.744 67.6C376.744 67.7333 376.677 67.8667 376.544 68ZM418.354 69C417.421 70.2 416.487 71.4333 415.554 72.7C414.687 73.9 413.787 75.1 412.854 76.3C411.921 77.5667 410.987 78.8333 410.054 80.1C409.187 81.3 408.287 82.5 407.354 83.7C406.487 84.9 405.454 85.9333 404.254 86.8C403.054 87.6 401.821 88.2 400.554 88.6C400.087 88.7333 399.621 88.8333 399.154 88.9C398.754 88.9667 398.321 89 397.854 89C396.254 89 394.854 88.4333 393.654 87.3C392.454 86.1667 391.787 84.3333 391.654 81.8C391.587 81 391.521 80.2 391.454 79.4C391.454 78.6 391.421 77.8 391.354 77C391.287 76.2667 391.221 75.5 391.154 74.7C391.154 73.9 391.121 73.1 391.054 72.3L384.554 86L375.354 88.3C375.421 86.0333 375.454 83.8 375.454 81.6C375.521 79.3333 375.587 77.0667 375.654 74.8C375.654 72.5333 375.654 70.3 375.654 68.1C375.721 65.8333 375.787 63.5667 375.854 61.3L386.354 57.3L386.954 74.2C387.421 73.2667 387.854 72.3333 388.254 71.4C388.721 70.4667 389.187 69.5333 389.654 68.6C390.121 67.6667 390.554 66.7333 390.954 65.8C391.421 64.8667 391.854 63.9333 392.254 63C392.787 62 393.354 61.2 393.954 60.6C394.621 60 395.287 59.5667 395.954 59.3C396.287 59.1667 396.621 59.0667 396.954 59C397.354 58.9333 397.721 58.9 398.054 58.9C399.454 58.9667 400.721 59.4667 401.854 60.4C402.987 61.2667 403.587 62.4667 403.654 64C403.854 67.0667 404.054 70.1333 404.254 73.2C404.454 76.2 404.654 79.2333 404.854 82.3C406.187 80.7 407.454 79.0667 408.654 77.4C409.921 75.7333 411.154 74.0333 412.354 72.3C412.487 72.1 412.621 71.9 412.754 71.7C412.954 71.5 413.121 71.3 413.254 71.1C413.721 70.4333 414.187 69.8 414.654 69.2C415.121 68.5333 415.587 67.9 416.054 67.3C416.254 67.0333 416.454 66.8667 416.654 66.8C416.854 66.6667 417.054 66.6333 417.254 66.7C417.654 66.7 417.987 66.8333 418.254 67.1C418.587 67.3667 418.721 67.7 418.654 68.1C418.654 68.2333 418.621 68.4 418.554 68.6C418.554 68.7333 418.487 68.8667 418.354 69ZM455.546 67.7C455.413 67.9 455.279 68.1 455.146 68.3C455.079 68.4333 454.979 68.5667 454.846 68.7C453.379 70.7 451.479 72.5333 449.146 74.2C446.879 75.8667 444.479 76.7 441.946 76.7C441.879 76.7 441.779 76.7 441.646 76.7C441.579 76.7 441.513 76.6667 441.446 76.6C441.313 76.6 441.213 76.6 441.146 76.6C441.079 76.6 440.979 76.6 440.846 76.6C440.379 77.8667 439.813 79.0667 439.146 80.2C438.546 81.3333 437.813 82.4333 436.946 83.5C435.813 84.8333 434.513 85.9333 433.046 86.8C431.646 87.6667 430.213 88.1667 428.746 88.3C428.546 88.3667 428.346 88.4 428.146 88.4C428.013 88.4 427.846 88.4 427.646 88.4C426.246 88.4 424.879 88.0333 423.546 87.3C422.213 86.5667 421.046 85.4 420.046 83.8C419.179 82.4667 418.546 81.0667 418.146 79.6C417.813 78.1333 417.646 76.6 417.646 75C417.646 74.6667 417.646 74.3333 417.646 74C417.713 73.6 417.746 73.2333 417.746 72.9C418.013 70.5 418.613 68.2 419.546 66C420.479 63.7333 421.679 61.8 423.146 60.2C424.479 58.6667 425.946 57.5 427.546 56.7C429.146 55.8333 430.813 55.4 432.546 55.4C435.679 55.4 438.013 56.5667 439.546 58.9C441.079 61.2333 441.979 63.7667 442.246 66.5C442.246 66.7 442.246 66.9 442.246 67.1C442.246 67.2333 442.246 67.4 442.246 67.6C442.246 68.0667 442.246 68.5667 442.246 69.1C442.246 69.6333 442.213 70.1667 442.146 70.7C442.146 71.2333 442.079 71.7667 441.946 72.3C441.879 72.7667 441.779 73.2667 441.646 73.8C441.713 73.8 441.779 73.8 441.846 73.8C441.979 73.8 442.079 73.8 442.146 73.8C443.946 73.8 445.679 73.2333 447.346 72.1C449.079 70.9 450.513 69.6 451.646 68.2C451.979 67.8667 452.246 67.5333 452.446 67.2C452.713 66.8667 452.946 66.5333 453.146 66.2C453.279 65.9333 453.446 65.7667 453.646 65.7C453.913 65.5667 454.179 65.5 454.446 65.5C454.846 65.5 455.179 65.6333 455.446 65.9C455.713 66.1667 455.846 66.5 455.846 66.9C455.846 66.9667 455.813 67.1 455.746 67.3C455.746 67.4333 455.679 67.5667 455.546 67.7ZM437.446 76.4C437.779 76.1333 438.013 75.8 438.146 75.4C438.279 75 438.346 74.5667 438.346 74.1C438.346 73.7 438.313 73.3 438.246 72.9C438.179 72.5 438.079 72.0667 437.946 71.6C437.746 71.1333 437.546 70.6667 437.346 70.2C437.146 69.7333 436.946 69.2667 436.746 68.8C436.479 68.4 436.246 68.0333 436.046 67.7C435.846 67.3667 435.679 67.1 435.546 66.9C435.346 66.6333 435.079 66.3 434.746 65.9C434.413 65.5 434.013 65.1 433.546 64.7C433.146 64.3 432.713 63.9333 432.246 63.6C431.779 63.2 431.313 62.8667 430.846 62.6C430.446 62.4 430.046 62.2333 429.646 62.1C429.246 61.9667 428.879 61.9 428.546 61.9C428.279 61.9667 428.013 62.0333 427.746 62.1C427.546 62.1667 427.346 62.2667 427.146 62.4C426.813 62.6667 426.546 63 426.346 63.4C426.213 63.8 426.179 64.2667 426.246 64.8C426.246 65.1333 426.279 65.5 426.346 65.9C426.413 66.2333 426.479 66.6 426.546 67C426.746 67.5333 426.946 68.1 427.146 68.7C427.346 69.2333 427.579 69.7333 427.846 70.2C428.046 70.6 428.246 70.9667 428.446 71.3C428.646 71.5667 428.813 71.8 428.946 72C429.146 72.2667 429.413 72.6 429.746 73C430.146 73.4 430.546 73.8 430.946 74.2C431.413 74.6 431.879 75 432.346 75.4C432.879 75.7333 433.413 76.0333 433.946 76.3C434.279 76.5 434.613 76.6667 434.946 76.8C435.346 76.8667 435.713 76.9 436.046 76.9C436.313 76.8333 436.546 76.7667 436.746 76.7C437.013 76.6333 437.246 76.5333 437.446 76.4ZM494.442 69C493.509 70.2 492.576 71.4333 491.642 72.7C490.776 73.9 489.876 75.1 488.942 76.3C488.009 77.5 487.076 78.7333 486.142 80C485.276 81.2 484.376 82.4 483.442 83.6C482.576 84.8 481.542 85.8333 480.342 86.7C479.142 87.5 477.909 88.1 476.642 88.5C476.176 88.6333 475.709 88.7333 475.242 88.8C474.842 88.8667 474.409 88.9 473.942 88.9C472.342 88.9 470.942 88.3333 469.742 87.2C468.542 86.0667 467.876 84.2333 467.742 81.7C467.742 81.1 467.709 80.5333 467.642 80C467.642 79.4 467.609 78.8 467.542 78.2C467.476 77.6 467.409 77.0333 467.342 76.5C467.342 75.9 467.342 75.3 467.342 74.7C467.076 75.3667 466.709 76.2333 466.242 77.3C465.776 78.3 465.209 79.3667 464.542 80.5C463.609 82.2333 462.476 83.8333 461.142 85.3C459.876 86.7 458.476 87.4 456.942 87.4C456.676 87.4 456.409 87.3667 456.142 87.3C455.876 87.1667 455.576 87.0667 455.242 87C454.176 86.6 453.376 85.9333 452.842 85C452.309 84 451.942 82.9667 451.742 81.9C451.676 81.5 451.609 81.1 451.542 80.7C451.542 80.3 451.542 79.9 451.542 79.5C451.476 76.4333 451.376 73.4 451.242 70.4C451.176 67.3333 451.076 64.2667 450.942 61.2L462.442 57.3L463.142 77C464.476 74.3333 465.576 71.6333 466.442 68.9C467.376 66.1 468.242 63.3 469.042 60.5L479.742 58C479.942 62.0667 480.142 66.1333 480.342 70.2C480.542 74.2 480.742 78.2 480.942 82.2C482.409 80.4 483.842 78.5667 485.242 76.7C486.642 74.8333 488.009 72.9667 489.342 71.1C489.809 70.4333 490.276 69.8 490.742 69.2C491.209 68.5333 491.676 67.9 492.142 67.3C492.342 67.0333 492.542 66.8667 492.742 66.8C492.942 66.6667 493.142 66.6333 493.342 66.7C493.742 66.7 494.076 66.8333 494.342 67.1C494.676 67.3667 494.809 67.7 494.742 68.1C494.742 68.2333 494.709 68.4 494.642 68.6C494.642 68.7333 494.576 68.8667 494.442 69ZM519.841 72.3C517.841 74.3667 515.841 76.4333 513.841 78.5C511.841 80.5667 509.875 82.6333 507.941 84.7C506.941 85.7667 505.808 86.6333 504.541 87.3C503.341 87.9 502.108 88.2667 500.841 88.4C500.641 88.4667 500.441 88.5 500.241 88.5C500.108 88.5 499.941 88.5 499.741 88.5C498.275 88.5 496.908 88.1333 495.641 87.4C494.375 86.6667 493.308 85.4667 492.441 83.8L495.441 75.7C496.575 77.3 497.741 78.8333 498.941 80.3C500.141 81.7 501.608 82.9 503.341 83.9C503.475 83.4333 503.608 82.9667 503.741 82.5C503.875 82.0333 503.975 81.5667 504.041 81.1C504.108 80.7 504.141 80.2667 504.141 79.8C504.208 79.3333 504.241 78.8667 504.241 78.4C504.175 76.1333 503.641 74.0667 502.641 72.2C501.641 70.2667 500.041 68.8333 497.841 67.9C497.708 68.1 497.575 68.3 497.441 68.5C497.308 68.6333 497.141 68.8 496.941 69C496.941 69 496.908 69.0333 496.841 69.1C496.841 69.1 496.841 69.1333 496.841 69.2C496.308 69.9333 495.775 70.6333 495.241 71.3C494.775 71.9667 494.375 72.5 494.041 72.9L491.641 71.4C492.041 71 492.441 70.5 492.841 69.9C493.308 69.2333 493.808 68.5667 494.341 67.9C494.408 67.8333 494.441 67.7667 494.441 67.7C494.575 67.6333 494.675 67.5333 494.741 67.4C494.808 67.2667 494.875 67.1667 494.941 67.1C494.675 67.0333 494.408 67 494.141 67C493.941 66.9333 493.675 66.8667 493.341 66.8L499.241 53.8C500.041 54.0667 500.808 54.3333 501.541 54.6C502.275 54.8667 502.975 55.2333 503.641 55.7C506.041 57.2333 507.741 59.3 508.741 61.9C509.808 64.4333 510.341 67.1 510.341 69.9C510.341 70.1 510.341 70.3333 510.341 70.6C510.341 70.8 510.341 71 510.341 71.2C510.208 72.8667 509.908 74.5333 509.441 76.2C509.041 77.8 508.508 79.3 507.841 80.7C508.641 79.8333 509.441 78.9667 510.241 78.1C511.108 77.2333 511.975 76.3667 512.841 75.5C513.641 74.7 514.441 73.8667 515.241 73C516.108 72.1333 516.941 71.2667 517.741 70.4C517.941 70.2 518.141 70.0667 518.341 70C518.541 69.9333 518.741 69.9 518.941 69.9C519.341 69.9 519.675 70.0667 519.941 70.4C520.208 70.6667 520.341 70.9667 520.341 71.3C520.275 71.5 520.208 71.7 520.141 71.9C520.075 72.0333 519.975 72.1667 519.841 72.3Z" fill="#333"/>
</svg>
